/* XPM */
static char *_90bd1af64d8483a816c882baf24907d40FGEjb1lRvH53Vh[] = {
/* columns rows colors chars-per-pixel */
"50 50 195 2 ",
"   c None",
".  c #331D28",
"X  c #321D29",
"o  c #331D29",
"O  c #321E28",
"+  c #331E28",
"@  c #321F28",
"#  c #321E29",
"$  c #331E29",
"%  c #331F29",
"&  c #321E2A",
"*  c #331E2A",
"=  c #331F2A",
"-  c #331F2B",
";  c #341F29",
":  c #351F29",
">  c #341E2A",
",  c #341F2A",
"<  c #341E2B",
"1  c #341F2B",
"2  c #3E1E29",
"3  c #371F30",
"4  c #381C30",
"5  c #391D31",
"6  c #3A1D32",
"7  c #3A1E35",
"8  c #3E1B39",
"9  c #3F1B3A",
"0  c #3E1C39",
"q  c #3F1A3D",
"w  c #33202A",
"e  c #33202C",
"r  c #34202C",
"t  c #34212C",
"y  c #34222D",
"u  c #35212E",
"i  c #36202E",
"p  c #36212E",
"a  c #35222F",
"s  c #382029",
"d  c #3D2129",
"f  c #352330",
"g  c #372232",
"h  c #352431",
"j  c #362431",
"k  c #362532",
"l  c #372634",
"z  c #372635",
"x  c #372735",
"c  c #372736",
"v  c #372737",
"b  c #3D2330",
"n  c #392134",
"m  c #372836",
"M  c #372837",
"N  c #382937",
"B  c #3B2439",
"V  c #3C223C",
"C  c #3E233D",
"Z  c #3F203E",
"A  c #3F213E",
"S  c #3E223E",
"D  c #3B273C",
"F  c #3D243D",
"G  c #3E243D",
"H  c #3C263C",
"J  c #3C263D",
"K  c #37293A",
"L  c #382838",
"P  c #382839",
"I  c #382939",
"U  c #392939",
"Y  c #382A39",
"T  c #3B2A39",
"R  c #39293A",
"E  c #39293B",
"W  c #3A293B",
"Q  c #392A3A",
"!  c #392A3B",
"~  c #392B3B",
"^  c #3A2A3B",
"/  c #3A283C",
"(  c #3B283C",
")  c #392A3C",
"_  c #382B3C",
"`  c #392B3C",
"'  c #3A2A3C",
"]  c #501C26",
"[  c #401A3C",
"{  c #411A3E",
"}  c #421A3E",
"|  c #421A3F",
" . c #431A3F",
".. c #421B3F",
"X. c #44193E",
"o. c #411C3F",
"O. c #411D3F",
"+. c #401F3E",
"@. c #401F3F",
"#. c #411F3F",
"$. c #44232F",
"%. c #4C262B",
"&. c #502629",
"*. c #53282A",
"=. c #54282A",
"-. c #57292A",
";. c #5D2C2D",
":. c #4F2530",
">. c #40213E",
",. c #40203F",
"<. c #42293A",
"1. c #412A3A",
"2. c #47293A",
"3. c #532F3B",
"4. c #5F2A3E",
"5. c #47383E",
"6. c #6B2027",
"7. c #612C2A",
"8. c #712127",
"9. c #71222A",
"0. c #79372C",
"q. c #672837",
"w. c #6C2834",
"e. c #6C2836",
"r. c #64283F",
"t. c #702735",
"y. c #7A2734",
"u. c #431840",
"i. c #431940",
"p. c #421A40",
"a. c #431A40",
"s. c #421B40",
"d. c #441A40",
"f. c #89272E",
"g. c #8F2A28",
"h. c #952C2F",
"j. c #962C2F",
"k. c #9C2E29",
"l. c #802732",
"z. c #952C30",
"x. c #992D30",
"c. c #992E30",
"v. c #9C3030",
"b. c #9C3231",
"n. c #A22F2E",
"m. c #A7302D",
"M. c #A7302E",
"N. c #A8302D",
"B. c #AB312D",
"V. c #AE322D",
"C. c #AC322E",
"Z. c #B3332D",
"A. c #BD352C",
"S. c #BB3D2E",
"D. c #C3372C",
"F. c #C4372C",
"G. c #C33B2E",
"H. c #C5382C",
"J. c #C6392D",
"K. c #C7392D",
"L. c #C83A2C",
"P. c #C93A2C",
"I. c #CA3C2D",
"U. c #994130",
"Y. c #A64831",
"T. c #AB4931",
"R. c #A4493A",
"E. c #B44C32",
"W. c #B74D32",
"Q. c #B84D33",
"!. c #B94D3B",
"~. c #BB5033",
"^. c #BF5033",
"/. c #BB5139",
"(. c #CD412F",
"). c #D24832",
"_. c #D24932",
"`. c #D34A32",
"'. c #D34B33",
"]. c #D34C33",
"[. c #D44D34",
"{. c #C15334",
"}. c #C25234",
"|. c #CE5736",
" X c #C35538",
".X c #CA5738",
"XX c #D75A36",
"oX c #D25A39",
"OX c #D75C38",
"+X c #D75D38",
"@X c #D75C39",
"#X c #D8643B",
"$X c #E6B469",
"%X c #E6B66D",
"&X c #E6B670",
/* pixels */
"                                                                                                    ",
"                                                                                                    ",
"                                  u.| d.                      0 d.s.                                ",
"                              s.d.s.d.s.s.d.d.7 y             , s.s.d.s.                            ",
"                            d.| 0 * 1 d.d.d.V d.| * n s.s.d.  w * ! | X.d.s.                        ",
"        +X                q | , * * * * * e s.X.! ! * w ! V X.| * ! ! V s.d.                        ",
"      .X+X+X              * ,   ! ! j , * * * | ,.! ! * B ! ) s.| z ) ! d.s.X.                      ",
"      +X+X+X+X                V V +.H ! ! z ! ! ! ! ! ~ y ! ! ) 4 * ! ! ! d.|                       ",
"      +XOXOXOX3.          H H s.H H ,.,.! ! ! ! ! ! ! ! ! ! ! ! y , ! ! ! X.|                       ",
"      ].XXOXOX+X        V d.d.d.d.d.! V ! ! ! ! ! ! ! ! ! ! ! ! ! ! ! ! ) +.* * !                   ",
"      '.'.).+X+X      s.d.s.X.| s.+.,.! ! ! ! ! ! ! ! ! ! ! ! ! ! ! ! ! ! ! * * !                   ",
"      [.F.(.F. X      s.s.4 * * j ) ! ! ! ! ! ! ! ! ! ! ! ! ! ! ! ! ! ! ! ! * y !                   ",
"      '.D.L.D.      s.| * * , * , ! ! ! ! ! ! ! ) ) H d.X.H ) ) ! ! ! ! ! ! , ! !                   ",
"      D.D.K.G.    d.| * + * ! ! ! ! ! ! ! ! ! ! ) ) j %.d.s.d.! ! ! ! ! ! ! ! ! !                   ",
"      D.D.L.      y , ,   ! ! ! ! ! ! ! ! ! ! ! ! ! ! T.Q.OXd.s.s.! ! ! ! ! ! ! !       , 8 [ s.    ",
"    D.D.D.I.      y       ! ! ! ! ! ! ! ! ! ! ! ! ! ! Q.^.U.OX!.d.d.V ! ! ! w * * * * , 4 }.r.d.    ",
"    D.D.F.              ! ) ! ! y , f ) ! ! ! | | B ) =.|.7.0.OXOXX.| +.) ! ! l , + : }.+Xs.d.      ",
"    D.D.K.              ! ! ! ! ) y * , * ! ! ! ,.s.( j Y.=.=.*.E.OXH ! ! ! ! ! ! ;.Q.oX4.d.        ",
"    D.D./.              ! ! ! ! ! ! ! y , * ! s.s.B * + w * * * , ! ! ! ! ! ! ! ! ! T N d.          ",
"  R.D.K.                ! ! ! ! ! ! ! ! y * , z , * + * , + * + + l ! ! ! ! ! ! ! ! ! ! d.          ",
"  S.Z.V.                ! ! ! ! ! ! ! ! ! , * * * * N * + , , * w z ! ! ! ! ! ! ! ! ! T             ",
"  V.c.v.                ! ! ! ! ! ! ! ! V | * , w     * , + + $X$X$XN ! ! ! ! ! ! ! ! !             ",
"  M.z.v.              ! ! ) ! ! ! ! ! ! d.d.* 1       * * + OX$X$X$X! m ! ! ~ ~ ! ! ! !             ",
"  %.z.y.            ! ! ! f N ! ! ! ! ! d.s.f ,       * + * OX$X$X$X5.+ ! * $X%X$X! ! !             ",
"  * $.q.1.        ! ! ! * + ! ! ! ! ! | s.d.1 *       * * + OX#X$X$X+ * + OX$X$X$X! ! !             ",
"    * w.w.! ! ! ! ! ! * * ! ! ! ! ! * s.V d.1 ,       * * * d OX$X$X* + w OX$X$X%X! ! )             ",
"    * * a ! ! ! ! , * * ! ~ ) ! ! ! * ! d.d., ,       * + * * + OXOX+ * + OX$X$X$X! !               ",
"      * * * * , * *     ! B d.s.s.! 1 z s.d.1           * w + * * + * + * OXOXOX! ! !               ",
"        y , * * *     ! ! ! H s.d.! f y d.1             + * + * + * + * + * + ! ! * !               ",
"                    ! ! ! ! ! , s.! , z s.                * , w * + * + * + * * * *                 ",
"                    ! ! ! ! ! * s.| , 1 * *                 , + + * + * + * * * y                   ",
"                  ! ! ! ! ! ! , s.+.* , w *                 ! ! * + * + * + ,                       ",
"                ! ! ! ! ! ! ! * | , , * * + *               ! ! ! ! ! ! ! ! ! ! ! ! ! ! ! ! ! !     ",
"              ! ! ! ! ! ! ! ! + * + * + + * + *             ! ! ! ! ! ! ! ! ! ! ! ! ! ! ! ! 2.!     ",
"              ! ! ! ! * ! ! + ! * * + * * + * +             ! ! ! ! ! ! ! ! ! ! ! ! ! ! ! ! j.+     ",
"            ! ! ! ! ! * ! ! !     + * + + * + * *                 ~ ! ! ! ! ! ! ! ! ! ] n.+ A.,     ",
"          _ ! ! ! ! ! + ! K       * * * + * + * *                         * * + *     * V.+ F.*     ",
"        ! ! ! ! ! ! ! *             * + * + * + * *                       * + * *     * N.2 N.+     ",
"        ! ! ! ! ! ! ! ! * *           * + * + * * +                       * * + *     w d + 9.*     ",
"        ! ! ! ! ! ! ! ! ! * , !         * + * + + * *                     * + * *         * *       ",
"          ! ! ! ! ! ! ! ! ! j *           * + * + * + *                   * + * *                   ",
"              ! ! ! ! ! ! ! ! ! !           * * * + * + *                 + * + *                   ",
"                  ! ! ! ! ! ! w + *           * + * + * *                 * + * *                   ",
"                    ~ ! ! ! ! ! ! ! * * *       * + * + * *               * * + * +                 ",
"                      ) ! ! ! ! n.D.6.* * * z   + * + * + * +             * * * * + * + ,           ",
"                          ! ! ! 1.1.D.D.8.g.k.*   * * + * * *             * * + + * + * * +         ",
"                            ! w.t.l.h.A.B.M.f.!     + * * * *             * * * * + * * * *         ",
"                                                                                                    ",
"                                                                                                    ",
"                                                                                                    "
};
